<svg xmlns="http://www.w3.org/2000/svg" xmlns:xlink="http://www.w3.org/1999/xlink" version="1.1" x="0px" y="0px" viewBox="0 0 100 125" enable-background="new 0 0 100 100" xml:space="preserve"><g><path d="M53.7060547,28.0737305l6.6445312-2.684082c1.4189453-0.5732422,1.4189453-2.5820312,0-3.1552734l-6.6445312-2.684082   c-0.4628906-0.1870117-0.8203125-0.5683594-0.9775391-1.0424805l-3.2485352-9.7993164   c-0.5151367-1.5546875-2.7148438-1.5546875-3.2299805,0l-3.2480469,9.7993164   c-0.1572266,0.4741211-0.5146484,0.8554688-0.9780273,1.0424805l-6.6445312,2.684082   c-1.4194336,0.5732422-1.4194336,2.5820312,0,3.1552734l6.6445312,2.684082   c0.4633789,0.1870117,0.8208008,0.5683594,0.9780273,1.0424805L46.25,38.9160156   c0.5151367,1.5546875,2.7148438,1.5546875,3.2299805,0l3.2485352-9.7998047   C52.8857422,28.6420898,53.2431641,28.2607422,53.7060547,28.0737305z"/><path d="M36.3193359,80.4492188l6.6445312-2.6835938c1.4189453-0.5732422,1.4189453-2.5820312,0-3.1552734l-6.6445312-2.6845703   c-0.4633789-0.1865234-0.8208008-0.5683594-0.9780273-1.0419922l-3.2480469-9.7998047   c-0.515625-1.5546875-2.7148438-1.5546875-3.2304688,0l-3.2480469,9.7998047   c-0.1572266,0.4736328-0.5146484,0.8554688-0.9780273,1.0419922l-6.6445312,2.6845703   c-1.4189453,0.5732422-1.4189453,2.5820312,0,3.1552734l6.6445312,2.6835938   c0.4633789,0.1875,0.8208008,0.5683594,0.9780273,1.0429688l3.2480469,9.7988281   c0.515625,1.5556641,2.7148438,1.5556641,3.2304688,0l3.2480469-9.7988281   C35.4985352,81.0175781,35.855957,80.6367188,36.3193359,80.4492188z"/><path d="M75.3632812,60.6132812l6.6445312-2.6835938c1.4189453-0.5732422,1.4189453-2.5820312,0-3.1552734l-6.6445312-2.6845703   c-0.4638672-0.1865234-0.8212891-0.5683594-0.9785156-1.0419922l-3.2480469-9.7998047   c-0.5146484-1.5546875-2.7148438-1.5546875-3.2294922,0l-3.2480469,9.7998047   c-0.1572266,0.4736328-0.515625,0.8554688-0.9785156,1.0419922l-6.6445312,2.6845703   c-1.4189453,0.5732422-1.4189453,2.5820312,0,3.1552734l6.6445312,2.6835938   c0.4628906,0.1875,0.8212891,0.5683594,0.9785156,1.0429688l3.2480469,9.7988281   c0.5146484,1.5556641,2.7148438,1.5556641,3.2294922,0l3.2480469-9.7988281   C74.5419922,61.1816406,74.8994141,60.8007812,75.3632812,60.6132812z"/></g></svg>