<svg xmlns="http://www.w3.org/2000/svg" viewBox="0 0 100 100">
  <path d="m53.706 28.074 6.645-2.684c1.419-.574 1.419-2.582 0-3.156l-6.645-2.684a1.702 1.702 0 0 1-.977-1.042l-3.249-9.8c-.515-1.554-2.715-1.554-3.23 0l-3.248 9.8a1.701 1.701 0 0 1-.978 1.042l-6.645 2.684c-1.419.574-1.419 2.582 0 3.156l6.645 2.684c.463.187.82.568.978 1.042l3.248 9.8c.515 1.555 2.715 1.555 3.23 0l3.249-9.8a1.7 1.7 0 0 1 .977-1.042zM36.32 80.45l6.644-2.684c1.419-.574 1.419-2.582 0-3.156l-6.645-2.684a1.7 1.7 0 0 1-.978-1.042l-3.248-9.8c-.515-1.555-2.715-1.555-3.23 0l-3.248 9.8a1.7 1.7 0 0 1-.978 1.042l-6.645 2.684c-1.419.574-1.419 2.582 0 3.156l6.645 2.683c.463.188.82.569.978 1.043l3.248 9.799c.515 1.556 2.715 1.556 3.23 0l3.248-9.799c.158-.474.515-.855.978-1.043zm39.043-19.837 6.645-2.683c1.419-.574 1.419-2.582 0-3.156l-6.645-2.684a1.7 1.7 0 0 1-.978-1.042l-3.248-9.8c-.515-1.555-2.715-1.555-3.23 0l-3.248 9.8a1.703 1.703 0 0 1-.978 1.042l-6.645 2.684c-1.419.574-1.419 2.582 0 3.156l6.645 2.683c.463.188.821.569.978 1.043l3.248 9.8c.515 1.555 2.715 1.555 3.23 0l3.248-9.8c.157-.474.514-.855.978-1.043z"/>
</svg>
