<svg xmlns="http://www.w3.org/2000/svg" style="shape-rendering:geometricPrecision;text-rendering:geometricPrecision;image-rendering:optimizeQuality" viewBox="0 0 282 282" fill-rule="evenodd" clip-rule="evenodd">
  <path d="M141 0C63 0 0 63 0 141s63 141 141 141 141-63 141-141S219 0 141 0zM82 176l35-35-35-35c-4-4-4-9 0-12l12-12c3-4 8-4 12 0l35 35 35-35c4-4 9-4 12 0l12 12c3 3 3 8 0 12l-35 35 35 35c3 4 3 9 0 12l-12 12c-3 3-8 3-12 0l-35-35-35 35c-4 3-9 3-12 0l-12-12c-4-3-4-8 0-12z" style="fill:#000;fill-rule:nonzero"/>
</svg>
