<svg xmlns="http://www.w3.org/2000/svg" xmlns:xlink="http://www.w3.org/1999/xlink" viewBox="0 0 44 44" version="1.1" x="0px" y="0px">><g stroke="none" stroke-width="1" fill="none" fill-rule="evenodd"><g transform="translate(-641.000000, -146.000000)"><path d="M663.146447,170.974874 L653.605781,180.515539 C652.822932,181.298388 651.553127,181.301864 650.772078,180.520815 C649.985584,179.734321 649.993391,178.471075 650.777354,177.687112 L660.318019,168.146447 L650.777354,158.605781 C649.994505,157.822932 649.991029,156.553127 650.772078,155.772078 C651.558572,154.985584 652.821819,154.993391 653.605781,155.777354 L663.146447,165.318019 L672.687112,155.777354 C673.469961,154.994505 674.739767,154.991029 675.520815,155.772078 C676.307309,156.558572 676.299502,157.821819 675.515539,158.605781 L665.974874,168.146447 L675.515539,177.687112 C676.298388,178.469961 676.301864,179.739767 675.520815,180.520815 C674.734321,181.307309 673.471075,181.299502 672.687112,180.515539 L663.146447,170.974874 L663.146447,170.974874 Z" fill="#000000"/></g></g></svg>