<svg xmlns="http://www.w3.org/2000/svg" xmlns:xlink="http://www.w3.org/1999/xlink" version="1.1" x="0px" y="0px" viewBox="0 0 100 100" enable-background="new 0 0 100 100" xml:space="preserve"><path d="M90.167,94.463H9.833c-2.761,0-5-2.238-5-5s2.239-5,5-5h80.334c2.762,0,5,2.238,5,5S92.929,94.463,90.167,94.463z"/><path d="M76.68,43.232c-1.951-1.952-5.119-1.952-7.07,0l-14.61,14.61V10.377c0-2.761-2.238-5-5-5c-2.761,0-5,2.239-5,5v47.465  L30.391,43.233c-1.951-1.952-5.118-1.953-7.071,0c-1.953,1.953-1.953,5.118,0,7.071l23.142,23.145  c0.231,0.23,0.484,0.438,0.756,0.62c0.068,0.045,0.145,0.074,0.214,0.116c0.208,0.126,0.418,0.25,0.645,0.344  c0.099,0.042,0.207,0.062,0.308,0.096c0.206,0.071,0.409,0.146,0.625,0.19c0.323,0.065,0.654,0.1,0.989,0.1  c0.335,0,0.666-0.034,0.989-0.1c0.207-0.042,0.4-0.115,0.597-0.182c0.111-0.037,0.229-0.059,0.337-0.104  c0.221-0.092,0.425-0.214,0.628-0.335c0.075-0.045,0.157-0.076,0.229-0.125c0.273-0.184,0.528-0.392,0.76-0.624L76.68,50.304  C78.633,48.351,78.633,45.185,76.68,43.232z"/></svg>