<svg xmlns="http://www.w3.org/2000/svg" viewBox="0 0 100 100" xml:space="preserve">
  <path d="M90.167 94.463H9.833a5 5 0 1 1 0-10h80.334c2.762 0 5 2.238 5 5s-2.238 5-5 5zM76.68 43.232a5 5 0 0 0-7.07 0L55 57.842V10.377a5 5 0 1 0-10 0v47.465L30.391 43.233a5 5 0 0 0-7.071 7.071l23.142 23.145c.231.23.484.438.756.62.068.045.145.074.214.116.208.126.418.25.645.344.099.042.207.062.308.096.206.071.409.146.625.19a4.938 4.938 0 0 0 1.978 0c.207-.042.4-.115.597-.182.111-.037.229-.059.337-.104.221-.092.425-.214.628-.335.075-.045.157-.076.229-.125.273-.184.528-.392.76-.624L76.68 50.304a5 5 0 0 0 0-7.072z"/>
</svg>
