<svg xmlns="http://www.w3.org/2000/svg" viewBox="0 0 100 100">
  <path d="M5268.4 2410.3c-.6 0-1 .4-1 1s.4 1 1 1h4.3c.6 0 1-.4 1-1s-.4-1-1-1h-4.3zm4.3 3.4h-4.3c-.6 0-1 .4-1 1s.4 1 1 1h4.3c.6 0 1-.4 1-1s-.4-1-1-1zm0 3.3h-4.3c-.6 0-1 .4-1 1s.4 1 1 1h4.3c.6 0 1-.4 1-1 0-.5-.4-1-1-1zM93.4 29.3 70.7 6.5c-5.3-5.3-14.5-5.3-19.8 0L6.6 50.8c-5.4 5.5-5.4 14.3 0 19.8l22.7 22.7c2.6 2.6 6.2 4.1 9.9 4.1s7.2-1.5 9.9-4.1L93.4 49c5.5-5.4 5.5-14.3 0-19.7zM42 86.2c-1.5 1.5-4 1.5-5.5 0L13.7 63.5c-1.5-1.5-1.5-4 0-5.5l22.2-22.2L64.1 64 42 86.2z"/>
</svg>
