<svg xmlns="http://www.w3.org/2000/svg" viewBox="0 0 32 40" x="0px" y="0px"><title>Eraser </title><g data-name="Layer 2"><path d="M29,27H15.8135L28.4512,14.3623a2.8953,2.8953,0,0,0,0-4.0889L21.2266,3.0488a2.8953,2.8953,0,0,0-4.0889,0L3.5488,16.6377a2.8953,2.8953,0,0,0,0,4.0889L9.8223,27H4a1,1,0,0,0,0,2H29a1,1,0,0,0,0-2ZM18.5518,4.4629a.8922.8922,0,0,1,1.2607,0l7.2246,7.2246a.8922.8922,0,0,1,0,1.2607l-8.5625,8.5625L9.9893,13.0254ZM4.9629,18.0518,8.5752,14.44l8.4853,8.4853-3.6123,3.6123a.8923.8923,0,0,1-1.2607,0L4.9629,19.3125A.8922.8922,0,0,1,4.9629,18.0518Z"/></g></svg>