<svg xmlns="http://www.w3.org/2000/svg" viewBox="0 0 100 100" style="enable-background:new 0 0 100 100" xml:space="preserve">
  <switch>
    <g>
      <path d="M5273.1 2400.1v-2c0-2.8-5-4-9.7-4s-9.7 1.3-9.7 4v2c0 1.8.7 3.6 2 4.9l5 4.9c.3.3.4.6.4 1v6.4c0 .4.2.7.6.8l2.9.9c.5.1 1-.2 1-.8v-7.2c0-.4.2-.7.4-1l5.1-5c1.3-1.3 2-3.1 2-4.9zm-9.7-.1c-4.8 0-7.4-1.3-7.5-1.8.1-.5 2.7-1.8 7.5-1.8s7.3 1.3 7.5 1.8c-.2.5-2.7 1.8-7.5 1.8z"/>
      <path d="M5268.4 2410.3c-.6 0-1 .4-1 1s.4 1 1 1h4.3c.6 0 1-.4 1-1s-.4-1-1-1h-4.3zm4.3 3.4h-4.3c-.6 0-1 .4-1 1s.4 1 1 1h4.3c.6 0 1-.4 1-1s-.4-1-1-1zm0 3.3h-4.3c-.6 0-1 .4-1 1s.4 1 1 1h4.3c.6 0 1-.4 1-1 0-.5-.4-1-1-1zM93.4 29.3 70.7 6.5c-5.3-5.3-14.5-5.3-19.8 0L6.6 50.8c-5.4 5.5-5.4 14.3 0 19.8l22.7 22.7c2.6 2.6 6.2 4.1 9.9 4.1s7.2-1.5 9.9-4.1L93.4 49c5.5-5.4 5.5-14.3 0-19.7zM42 86.2c-1.5 1.5-4 1.5-5.5 0L13.7 63.5c-1.5-1.5-1.5-4 0-5.5l22.2-22.2L64.1 64 42 86.2z"/>
    </g>
  </switch>
</svg>
