<svg xmlns="http://www.w3.org/2000/svg" data-name="Layer 4" viewBox="0 0 24 24" x="0px" y="0px"><g data-name="Eraser, Rubber"><path d="M8.687,21a5.686,5.686,0,0,1-4.021-9.707l6.627-6.627a5.686,5.686,0,1,1,8.041,8.041l-6.627,6.627A5.649,5.649,0,0,1,8.687,21ZM15.313,5a3.663,3.663,0,0,0-2.606,1.08L6.08,12.707h0a3.685,3.685,0,0,0,0,5.213,3.776,3.776,0,0,0,5.213,0l6.627-6.627A3.687,3.687,0,0,0,15.313,5Zm-9.94,7h0Z"/><path d="M13.82,17.82a1,1,0,0,1-.707-.293L6.483,10.9A1,1,0,0,1,7.9,9.483l6.63,6.63a1,1,0,0,1-.707,1.707Z"/><path d="M16,21H8.68a1,1,0,0,1,0-2H16a1,1,0,0,1,0,2Z"/><path d="M20,21a1,1,0,0,1-.38-.08,1.155,1.155,0,0,1-.33-.21,1.169,1.169,0,0,1-.21-.33.943.943,0,0,1,0-.76,1.032,1.032,0,0,1,.21-.33A1,1,0,0,1,21,20a1,1,0,0,1-.08.38.9.9,0,0,1-.54.54A1,1,0,0,1,20,21Z"/></g></svg>