<svg xmlns="http://www.w3.org/2000/svg" xmlns:xlink="http://www.w3.org/1999/xlink" version="1.1" x="0px" y="0px" viewBox="0 0 100 100" style="enable-background:new 0 0 100 100;" xml:space="preserve"><g><path d="M34.7,91h30.7C72.9,91,79,84.9,79,77.3V30h7c2.2,0,4-1.8,4-4s-1.8-4-4-4H75h-9v-5.2c0-5.4-4.4-9.8-9.8-9.8H43.8   c-5.4,0-9.8,4.4-9.8,9.8V22h-9H14c-2.2,0-4,1.8-4,4s1.8,4,4,4h7v47.3C21,84.9,27.1,91,34.7,91z M42,16.8c0-1,0.8-1.8,1.8-1.8h12.4   c1,0,1.8,0.8,1.8,1.8V22H42V16.8z M29,30h9h24h9v47.3c0,3.1-2.5,5.7-5.7,5.7H34.7c-3.1,0-5.7-2.5-5.7-5.7V30z"/><path d="M44,76c2.2,0,4-1.8,4-4V41c0-2.2-1.8-4-4-4s-4,1.8-4,4v31C40,74.2,41.8,76,44,76z"/><path d="M56,76c2.2,0,4-1.8,4-4V41c0-2.2-1.8-4-4-4s-4,1.8-4,4v31C52,74.2,53.8,76,56,76z"/></g></svg>