<svg xmlns="http://www.w3.org/2000/svg" viewBox="0 0 100 100">
  <path d="M34.7 91h30.7C72.9 91 79 84.9 79 77.3V30h7c2.2 0 4-1.8 4-4s-1.8-4-4-4H66v-5.2c0-5.4-4.4-9.8-9.8-9.8H43.8c-5.4 0-9.8 4.4-9.8 9.8V22H14c-2.2 0-4 1.8-4 4s1.8 4 4 4h7v47.3C21 84.9 27.1 91 34.7 91zM42 16.8c0-1 .8-1.8 1.8-1.8h12.4c1 0 1.8.8 1.8 1.8V22H42v-5.2zM29 30h42v47.3c0 3.1-2.5 5.7-5.7 5.7H34.7c-3.1 0-5.7-2.5-5.7-5.7V30z"/>
  <path d="M44 76c2.2 0 4-1.8 4-4V41c0-2.2-1.8-4-4-4s-4 1.8-4 4v31c0 2.2 1.8 4 4 4zm12 0c2.2 0 4-1.8 4-4V41c0-2.2-1.8-4-4-4s-4 1.8-4 4v31c0 2.2 1.8 4 4 4z"/>
</svg>
